# xmcd
#
# Track frame offsets:
#	150
#	12685
#	26452
#	40305
#	52407
#	65465
#	79797
#	94190
#	107052
#	121645
#	134245
#	148782
#	162742
#	174922
#	186797
#	203215
#	216132
#	228877
#	243517
#	258042
#	272442
#	286437
#	300787
#	312470
#	326845
#
# Disc length: 4555 seconds
#
# Revision: 0
# Processed by: cddbd v1.4PL0 Copyright (c) Steve Scherf et al.
# Submitted via: audiograbber 1.81.03
#
DISCID=7011c919
DTITLE=Tampa Red - In Chronological Order Vol. 1
DYEAR=1928
DGENRE=Blues
TTITLE0=Through Train Blues
TTITLE1=The Alley Crap Game
TTITLE2=It's Tight Like That
TTITLE3=Gold Tooth Papa Blues
TTITLE4=Death Bell Blues
TTITLE5=It's Red Hot
TTITLE6=Too Black Bad
TTITLE7=Good Gordon Gin
TTITLE8=Down the Alley
TTITLE9=It's Tight Like That
TTITLE10=How Long How Long Blues
TTITLE11=You Can't Come In
TTITLE12=It's Tight Like That No. 2
TTITLE13=(Honey) It's Tight Like That
TTITLE14=Big Fat Mama
TTITLE15=Selling that Stuff
TTITLE16=Beedle Um Bum
TTITLE17=Rolling Mill Stomp
TTITLE18=Rolling Mill Stomp
TTITLE19=Panama Blues
TTITLE20=Juicy Lemon Blues
TTITLE21=Chicago Moan Blues
TTITLE22=Strange Woman Blues
TTITLE23=Jelly Whippin' Blues
TTITLE24=Train Time Blues
EXTD=In Chronological Order Vol. 1   May 1928 to 12 January 1929
EXTT0=
EXTT1=
EXTT2=
EXTT3=
EXTT4=
EXTT5=
EXTT6=
EXTT7=
EXTT8=
EXTT9=
EXTT10=
EXTT11=
EXTT12=
EXTT13=
EXTT14=
EXTT15=
EXTT16=
EXTT17=
EXTT18=
EXTT19=
EXTT20=
EXTT21=
EXTT22=
EXTT23=
EXTT24=
PLAYORDER=
